<?xml version="1.0" standalone="no"?><!DOCTYPE svg PUBLIC "-//W3C//DTD SVG 1.1//EN" "http://www.w3.org/Graphics/SVG/1.1/DTD/svg11.dtd"><svg t="1693070665275" class="icon" viewBox="0 0 1024 1024" version="1.1" xmlns="http://www.w3.org/2000/svg" p-id="26800" xmlns:xlink="http://www.w3.org/1999/xlink" width="200" height="200"><path d="M512 938.7C276.4 938.7 85.3 747.6 85.3 512S276.4 85.3 512 85.3s426.7 191 426.7 426.7-191 426.7-426.7 426.7z m-170.7-384a170.7 170.7 0 1 0 341.3 0H341.3z m0-85.3a64 64 0 1 0 0-128 64 64 0 0 0 0 128z m341.3 0a64 64 0 1 0 0-128 64 64 0 0 0 0 128z" p-id="26801" fill="#888888"></path></svg>